<?xml version="1.0" encoding="UTF-8"?>
<svg id="Layer_2" data-name="Layer 2" xmlns="http://www.w3.org/2000/svg" viewBox="0 0 150 150">
  <defs>
    <style>
      .cls-1 {
        fill: #ff69b4;
      }

      .cls-2 {
        fill: #4169e1;
      }
    </style>
  </defs>
  <g id="Layer_1-2" data-name="Layer 1">
    <g>
      <path class="cls-2" d="m75,0C33.58,0,0,33.58,0,75s33.58,75,75,75,75-33.58,75-75S116.42,0,75,0Zm0,121.88c-25.89,0-46.88-20.98-46.88-46.88s20.98-46.88,46.88-46.88,46.88,20.98,46.88,46.88-20.98,46.88-46.88,46.88Z"/>
      <path class="cls-1" d="m75,37.5c-20.71,0-37.5,16.79-37.5,37.5,0,7.9,2.44,15.22,6.61,21.26l12.01-14.31-6.43-5.36c-3.11-2.59-1.71-7.65,2.29-8.27l33.22-5.16c2.82-.44,5.38,1.71,5.43,4.56l.65,33.4c.08,4.04-4.62,6.29-7.73,3.71l-5.84-4.87-9.93,11.84c2.33.45,4.74.7,7.21.7,20.71,0,37.5-16.79,37.5-37.5s-16.79-37.5-37.5-37.5h0Z"/>
    </g>
  </g>
</svg>